ffmpeg started on 2025-05-28 at 11:34:53
Report written to "D:\Convert\FFMetrics\reports\ssim_report-6.txt"
Log level: 32
Command line:
ffmpeg -hide_banner -nostdin -i "G:\\\xc0\xed\xe8\xec\xe5\\\xce\xed\xe3\xee\xe8\xed\xe3\xe8\\!_36_\xce\xf1\xe5\xed\xfc_2024\\JamClub\\SAO\\\xc0\xeb\xfc\xf2\xe5\xf0\xed\xe0\xf2\xe8\xe2\xed\xe0\xff \xab\xcf\xf0\xe8\xe7\xf0\xe0\xf7\xed\xe0\xff \xef\xf3\xeb\xff\xbb\\\xd2\xc2-2\\JamClub_Sword_Art_Online_Alternative_Gun_Gale_Online_II_06_1080p_HEVC.mkv" -i "G:\\\xc0\xed\xe8\xec\xe5\\\xce\xed\xe3\xee\xe8\xed\xe3\xe8\\!_36_\xce\xf1\xe5\xed\xfc_2024\\JamClub\\SAO\\\xc0\xeb\xfc\xf2\xe5\xf0\xed\xe0\xf2\xe8\xe2\xed\xe0\xff \xab\xcf\xf0\xe8\xe7\xf0\xe0\xf7\xed\xe0\xff \xef\xf3\xeb\xff\xbb\\\xd2\xc2-2\\JamClub_Sword_Art_Online_Alternative_Gun_Gale_Online_II_06_1080p.mp4" -lavfi "[0:v]settb=AVTB,setpts=PTS-STARTPTS,format=pix_fmts=yuv420p10,fps=24000/1001,scale=1920:1080:flags=bicubic[main];[1:v]settb=AVTB,setpts=PTS-STARTPTS,format=pix_fmts=yuv420p,fps=24000/1001,scale=1920:1080:flags=bicubic[ref];[main][ref]ssim=eof_action=endall:stats_file='D\\:/Convert/FFMetrics/logs/ssim_logfile-6.txt'" -f null -
Input #0, matroska,webm, from 'G:\Аниме\Онгоинги\!_36_Осень_2024\JamClub\SAO\Альтернативная «Призрачная пуля»\ТВ-2\JamClub_Sword_Art_Online_Alternative_Gun_Gale_Online_II_06_1080p_HEVC.mkv':
  Metadata:
    COMPATIBLE_BRANDS: isomiso2avc1mp41
    MAJOR_BRAND     : isom
    MINOR_VERSION   : 512
    ENCODER         : Lavf61.7.100
  Duration: 00:24:02.31, start: -0.001000, bitrate: 1457 kb/s
  Stream #0:0: Video: hevc (Main 10), yuv420p10le(tv, bt709, progressive), 1920x1080 [SAR 1:1 DAR 16:9], 23.98 fps, 23.98 tbr, 1k tbn (default)
      Metadata:
        HANDLER_NAME    : VideoHandler
        VENDOR_ID       : [0][0][0][0]
        ENCODER         : Lavc61.19.100 libx265
        BPS             : 1260204
        DURATION        : 00:24:02.148708333
        NUMBER_OF_FRAMES: 34577
        NUMBER_OF_BYTES : 227175089
        _STATISTICS_WRITING_APP: mkvpropedit v66.0.0 ('Josie') 64-bit
        _STATISTICS_WRITING_DATE_UTC: 2025-05-27 16:06:34
        _STATISTICS_TAGS: BPS DURATION NUMBER_OF_FRAMES NUMBER_OF_BYTES
  Stream #0:1(eng): Audio: aac (LC), 48000 Hz, stereo, fltp (default)
      Metadata:
        HANDLER_NAME    : SoundHandler
        VENDOR_ID       : [0][0][0][0]
        ENCODER         : Lavc61.19.100 aac
        BPS             : 193399
        DURATION        : 00:24:02.264000000
        NUMBER_OF_FRAMES: 67607
        NUMBER_OF_BYTES : 34866561
        _STATISTICS_WRITING_APP: mkvpropedit v66.0.0 ('Josie') 64-bit
        _STATISTICS_WRITING_DATE_UTC: 2025-05-27 16:06:34
        _STATISTICS_TAGS: BPS DURATION NUMBER_OF_FRAMES NUMBER_OF_BYTES
Input #1, mov,mp4,m4a,3gp,3g2,mj2, from 'G:\Аниме\Онгоинги\!_36_Осень_2024\JamClub\SAO\Альтернативная «Призрачная пуля»\ТВ-2\JamClub_Sword_Art_Online_Alternative_Gun_Gale_Online_II_06_1080p.mp4':
  Metadata:
    major_brand     : isom
    minor_version   : 512
    compatible_brands: isomiso2avc1mp41
    encoder         : Lavf60.16.100
  Duration: 00:24:02.28, start: 0.000000, bitrate: 4936 kb/s
  Stream #1:0[0x1](und): Video: h264 (High) (avc1 / 0x31637661), yuv420p(progressive), 1920x1080 [SAR 1:1 DAR 16:9], 4738 kb/s, 23.98 fps, 23.98 tbr, 90k tbn (default)
      Metadata:
        handler_name    : VideoHandler
        vendor_id       : [0][0][0][0]
  Stream #1:1[0x2](eng): Audio: aac (LC) (mp4a / 0x6134706D), 48000 Hz, stereo, fltp, 191 kb/s (default)
      Metadata:
        handler_name    : SoundHandler
        vendor_id       : [0][0][0][0]
Stream mapping:
  Stream #0:0 (hevc) -> settb:default
  Stream #1:0 (h264) -> settb:default
  ssim:default -> Stream #0:0 (wrapped_avframe)
  Stream #0:1 -> #0:1 (aac (native) -> pcm_s16le (native))
Output #0, null, to 'pipe:':
  Metadata:
    COMPATIBLE_BRANDS: isomiso2avc1mp41
    MAJOR_BRAND     : isom
    MINOR_VERSION   : 512
    encoder         : Lavf61.7.100
  Stream #0:0: Video: wrapped_avframe, yuv420p10le(tv, bt709, progressive), 1920x1080 [SAR 1:1 DAR 16:9], q=2-31, 200 kb/s, 23.98 fps, 23.98 tbn
      Metadata:
        encoder         : Lavc61.19.100 wrapped_avframe
  Stream #0:1(eng): Audio: pcm_s16le, 48000 Hz, stereo, s16, 1536 kb/s (default)
      Metadata:
        HANDLER_NAME    : SoundHandler
        VENDOR_ID       : [0][0][0][0]
        _STATISTICS_TAGS: BPS DURATION NUMBER_OF_FRAMES NUMBER_OF_BYTES
        BPS             : 193399
        DURATION        : 00:24:02.264000000
        NUMBER_OF_FRAMES: 67607
        NUMBER_OF_BYTES : 34866561
        _STATISTICS_WRITING_APP: mkvpropedit v66.0.0 ('Josie') 64-bit
        _STATISTICS_WRITING_DATE_UTC: 2025-05-27 16:06:34
        encoder         : Lavc61.19.100 pcm_s16le
frame=  112 fps=0.0 q=-0.0 size=N/A time=00:00:04.67 bitrate=N/A speed= 9.3x    frame=  274 fps=266 q=-0.0 size=N/A time=00:00:11.42 bitrate=N/A speed=11.1x    frame=  467 fps=304 q=-0.0 size=N/A time=00:00:19.47 bitrate=N/A speed=12.7x    frame=  722 fps=350 q=-0.0 size=N/A time=00:00:30.11 bitrate=N/A speed=14.6x    frame=  973 fps=378 q=-0.0 size=N/A time=00:00:40.58 bitrate=N/A speed=15.8x    frame= 1204 fps=390 q=-0.0 size=N/A time=00:00:50.21 bitrate=N/A speed=16.3x    frame= 1462 fps=405 q=-0.0 size=N/A time=00:01:00.97 bitrate=N/A speed=16.9x    frame= 1716 fps=417 q=-0.0 size=N/A time=00:01:11.57 bitrate=N/A speed=17.4x    frame= 1960 fps=424 q=-0.0 size=N/A time=00:01:21.74 bitrate=N/A speed=17.7x    frame= 2210 fps=429 q=-0.0 size=N/A time=00:01:32.17 bitrate=N/A speed=17.9x    frame= 2478 fps=438 q=-0.0 size=N/A time=00:01:43.35 bitrate=N/A speed=18.3x    frame= 2693 fps=436 q=-0.0 size=N/A time=00:01:52.32 bitrate=N/A speed=18.2x    frame= 2922 fps=436 q=-0.0 size=N/A time=00:02:01.87 bitrate=N/A speed=18.2x    frame= 3144 fps=435 q=-0.0 size=N/A time=00:02:11.13 bitrate=N/A speed=18.1x    frame= 3348 fps=432 q=-0.0 size=N/A time=00:02:19.63 bitrate=N/A speed=  18x    frame= 3540 fps=429 q=-0.0 size=N/A time=00:02:27.64 bitrate=N/A speed=17.9x    frame= 3744 fps=426 q=-0.0 size=N/A time=00:02:36.15 bitrate=N/A speed=17.8x    frame= 3954 fps=426 q=-0.0 size=N/A time=00:02:44.91 bitrate=N/A speed=17.8x    frame= 4180 fps=426 q=-0.0 size=N/A time=00:02:54.34 bitrate=N/A speed=17.8x    frame= 4397 fps=426 q=-0.0 size=N/A time=00:03:03.39 bitrate=N/A speed=17.8x    frame= 4577 fps=422 q=-0.0 size=N/A time=00:03:10.89 bitrate=N/A speed=17.6x    frame= 4761 fps=419 q=-0.0 size=N/A time=00:03:18.57 bitrate=N/A speed=17.5x    frame= 4890 fps=412 q=-0.0 size=N/A time=00:03:23.95 bitrate=N/A speed=17.2x    frame= 5066 fps=409 q=-0.0 size=N/A time=00:03:31.29 bitrate=N/A speed=17.1x    frame= 5256 fps=408 q=-0.0 size=N/A time=00:03:39.21 bitrate=N/A speed=  17x    frame= 5407 fps=403 q=-0.0 size=N/A time=00:03:45.51 bitrate=N/A speed=16.8x    frame= 5574 fps=400 q=-0.0 size=N/A time=00:03:52.48 bitrate=N/A speed=16.7x    frame= 5782 fps=400 q=-0.0 size=N/A time=00:04:01.15 bitrate=N/A speed=16.7x    frame= 6019 fps=402 q=-0.0 size=N/A time=00:04:11.04 bitrate=N/A speed=16.8x    frame= 6214 fps=401 q=-0.0 size=N/A time=00:04:19.17 bitrate=N/A speed=16.7x    frame= 6422 fps=402 q=-0.0 size=N/A time=00:04:27.85 bitrate=N/A speed=16.7x    frame= 6665 fps=404 q=-0.0 size=N/A time=00:04:37.98 bitrate=N/A speed=16.8x    frame= 6878 fps=404 q=-0.0 size=N/A time=00:04:46.86 bitrate=N/A speed=16.8x    frame= 7102 fps=405 q=-0.0 size=N/A time=00:04:56.21 bitrate=N/A speed=16.9x    frame= 7344 fps=407 q=-0.0 size=N/A time=00:05:06.30 bitrate=N/A speed=  17x    frame= 7534 fps=406 q=-0.0 size=N/A time=00:05:14.23 bitrate=N/A speed=16.9x    frame= 7741 fps=405 q=-0.0 size=N/A time=00:05:22.86 bitrate=N/A speed=16.9x    frame= 7965 fps=406 q=-0.0 size=N/A time=00:05:32.20 bitrate=N/A speed=16.9x    frame= 8168 fps=406 q=-0.0 size=N/A time=00:05:40.67 bitrate=N/A speed=16.9x    frame= 8403 fps=407 q=-0.0 size=N/A time=00:05:50.47 bitrate=N/A speed=  17x    frame= 8638 fps=408 q=-0.0 size=N/A time=00:06:00.27 bitrate=N/A speed=  17x    frame= 8909 fps=411 q=-0.0 size=N/A time=00:06:11.57 bitrate=N/A speed=17.2x    frame= 9170 fps=413 q=-0.0 size=N/A time=00:06:22.46 bitrate=N/A speed=17.2x    frame= 9398 fps=414 q=-0.0 size=N/A time=00:06:31.97 bitrate=N/A speed=17.3x    frame= 9652 fps=416 q=-0.0 size=N/A time=00:06:42.56 bitrate=N/A speed=17.3x    frame= 9902 fps=417 q=-0.0 size=N/A time=00:06:52.99 bitrate=N/A speed=17.4x    frame=10113 fps=417 q=-0.0 size=N/A time=00:07:01.79 bitrate=N/A speed=17.4x    frame=10357 fps=418 q=-0.0 size=N/A time=00:07:11.97 bitrate=N/A speed=17.4x    frame=10615 fps=420 q=-0.0 size=N/A time=00:07:22.73 bitrate=N/A speed=17.5x    frame=10856 fps=421 q=-0.0 size=N/A time=00:07:32.78 bitrate=N/A speed=17.6x    frame=11067 fps=421 q=-0.0 size=N/A time=00:07:41.58 bitrate=N/A speed=17.5x    frame=11304 fps=422 q=-0.0 size=N/A time=00:07:51.47 bitrate=N/A speed=17.6x    frame=11556 fps=423 q=-0.0 size=N/A time=00:08:01.98 bitrate=N/A speed=17.6x    frame=11781 fps=423 q=-0.0 size=N/A time=00:08:11.36 bitrate=N/A speed=17.6x    frame=11983 fps=422 q=-0.0 size=N/A time=00:08:19.79 bitrate=N/A speed=17.6x    frame=12228 fps=423 q=-0.0 size=N/A time=00:08:30.00 bitrate=N/A speed=17.6x    frame=12461 fps=424 q=-0.0 size=N/A time=00:08:39.72 bitrate=N/A speed=17.7x    frame=12692 fps=424 q=-0.0 size=N/A time=00:08:49.36 bitrate=N/A speed=17.7x    frame=12925 fps=424 q=-0.0 size=N/A time=00:08:59.08 bitrate=N/A speed=17.7x    frame=13175 fps=426 q=-0.0 size=N/A time=00:09:09.50 bitrate=N/A speed=17.7x    frame=13382 fps=425 q=-0.0 size=N/A time=00:09:18.14 bitrate=N/A speed=17.7x    frame=13588 fps=425 q=-0.0 size=N/A time=00:09:26.73 bitrate=N/A speed=17.7x    frame=13827 fps=425 q=-0.0 size=N/A time=00:09:36.70 bitrate=N/A speed=17.7x    frame=14038 fps=425 q=-0.0 size=N/A time=00:09:45.50 bitrate=N/A speed=17.7x    frame=14298 fps=426 q=-0.0 size=N/A time=00:09:56.34 bitrate=N/A speed=17.8x    frame=14544 fps=427 q=-0.0 size=N/A time=00:10:06.60 bitrate=N/A speed=17.8x    frame=14791 fps=428 q=-0.0 size=N/A time=00:10:16.90 bitrate=N/A speed=17.8x    frame=14970 fps=427 q=-0.0 size=N/A time=00:10:24.37 bitrate=N/A speed=17.8x    frame=15218 fps=427 q=-0.0 size=N/A time=00:10:34.71 bitrate=N/A speed=17.8x    frame=15489 fps=429 q=-0.0 size=N/A time=00:10:46.02 bitrate=N/A speed=17.9x    frame=15733 fps=429 q=-0.0 size=N/A time=00:10:56.19 bitrate=N/A speed=17.9x    frame=15945 fps=429 q=-0.0 size=N/A time=00:11:05.03 bitrate=N/A speed=17.9x    frame=16155 fps=429 q=-0.0 size=N/A time=00:11:13.79 bitrate=N/A speed=17.9x    frame=16393 fps=429 q=-0.0 size=N/A time=00:11:23.72 bitrate=N/A speed=17.9x    frame=16636 fps=430 q=-0.0 size=N/A time=00:11:33.85 bitrate=N/A speed=17.9x    frame=16879 fps=430 q=-0.0 size=N/A time=00:11:43.99 bitrate=N/A speed=17.9x    frame=17119 fps=431 q=-0.0 size=N/A time=00:11:54.00 bitrate=N/A speed=  18x    frame=17359 fps=431 q=-0.0 size=N/A time=00:12:04.01 bitrate=N/A speed=  18x    frame=17609 fps=432 q=-0.0 size=N/A time=00:12:14.44 bitrate=N/A speed=  18x    frame=17827 fps=431 q=-0.0 size=N/A time=00:12:23.53 bitrate=N/A speed=  18x    frame=18075 fps=432 q=-0.0 size=N/A time=00:12:33.87 bitrate=N/A speed=  18x    frame=18294 fps=432 q=-0.0 size=N/A time=00:12:43.01 bitrate=N/A speed=  18x    frame=18464 fps=431 q=-0.0 size=N/A time=00:12:50.10 bitrate=N/A speed=  18x    frame=18666 fps=430 q=-0.0 size=N/A time=00:12:58.52 bitrate=N/A speed=17.9x    frame=18894 fps=430 q=-0.0 size=N/A time=00:13:08.03 bitrate=N/A speed=  18x    frame=19116 fps=430 q=-0.0 size=N/A time=00:13:17.29 bitrate=N/A speed=  18x    frame=19340 fps=430 q=-0.0 size=N/A time=00:13:26.63 bitrate=N/A speed=  18x    frame=19594 fps=431 q=-0.0 size=N/A time=00:13:37.23 bitrate=N/A speed=  18x    frame=19821 fps=431 q=-0.0 size=N/A time=00:13:46.70 bitrate=N/A speed=  18x    frame=20084 fps=432 q=-0.0 size=N/A time=00:13:57.67 bitrate=N/A speed=  18x    frame=20338 fps=433 q=-0.0 size=N/A time=00:14:08.26 bitrate=N/A speed=  18x    frame=20590 fps=433 q=-0.0 size=N/A time=00:14:18.77 bitrate=N/A speed=18.1x    frame=20831 fps=434 q=-0.0 size=N/A time=00:14:28.82 bitrate=N/A speed=18.1x    frame=21032 fps=433 q=-0.0 size=N/A time=00:14:37.20 bitrate=N/A speed=18.1x    frame=21273 fps=434 q=-0.0 size=N/A time=00:14:47.26 bitrate=N/A speed=18.1x    frame=21483 fps=433 q=-0.0 size=N/A time=00:14:56.02 bitrate=N/A speed=18.1x    frame=21718 fps=434 q=-0.0 size=N/A time=00:15:05.82 bitrate=N/A speed=18.1x    frame=21973 fps=434 q=-0.0 size=N/A time=00:15:16.45 bitrate=N/A speed=18.1x    frame=22238 fps=435 q=-0.0 size=N/A time=00:15:27.50 bitrate=N/A speed=18.1x    frame=22481 fps=435 q=-0.0 size=N/A time=00:15:37.64 bitrate=N/A speed=18.2x    frame=22723 fps=436 q=-0.0 size=N/A time=00:15:47.73 bitrate=N/A speed=18.2x    frame=22931 fps=435 q=-0.0 size=N/A time=00:15:56.41 bitrate=N/A speed=18.2x    frame=23124 fps=435 q=-0.0 size=N/A time=00:16:04.46 bitrate=N/A speed=18.1x    frame=23311 fps=434 q=-0.0 size=N/A time=00:16:12.26 bitrate=N/A speed=18.1x    frame=23566 fps=435 q=-0.0 size=N/A time=00:16:22.89 bitrate=N/A speed=18.1x    frame=23819 fps=435 q=-0.0 size=N/A time=00:16:33.45 bitrate=N/A speed=18.2x    frame=24086 fps=436 q=-0.0 size=N/A time=00:16:44.58 bitrate=N/A speed=18.2x    frame=24362 fps=437 q=-0.0 size=N/A time=00:16:56.09 bitrate=N/A speed=18.2x    frame=24630 fps=438 q=-0.0 size=N/A time=00:17:07.27 bitrate=N/A speed=18.3x    frame=24870 fps=438 q=-0.0 size=N/A time=00:17:17.28 bitrate=N/A speed=18.3x    frame=25135 fps=439 q=-0.0 size=N/A time=00:17:28.33 bitrate=N/A speed=18.3x    frame=25407 fps=439 q=-0.0 size=N/A time=00:17:39.68 bitrate=N/A speed=18.3x    frame=25685 fps=440 q=-0.0 size=N/A time=00:17:51.27 bitrate=N/A speed=18.4x    frame=25938 fps=441 q=-0.0 size=N/A time=00:18:01.83 bitrate=N/A speed=18.4x    frame=26098 fps=440 q=-0.0 size=N/A time=00:18:08.50 bitrate=N/A speed=18.3x    frame=26300 fps=439 q=-0.0 size=N/A time=00:18:16.92 bitrate=N/A speed=18.3x    frame=26570 fps=440 q=-0.0 size=N/A time=00:18:28.19 bitrate=N/A speed=18.3x    frame=26817 fps=440 q=-0.0 size=N/A time=00:18:38.49 bitrate=N/A speed=18.4x    frame=27073 fps=441 q=-0.0 size=N/A time=00:18:49.16 bitrate=N/A speed=18.4x    frame=27324 fps=441 q=-0.0 size=N/A time=00:18:59.63 bitrate=N/A speed=18.4x    frame=27594 fps=442 q=-0.0 size=N/A time=00:19:10.89 bitrate=N/A speed=18.4x    frame=27871 fps=443 q=-0.0 size=N/A time=00:19:22.45 bitrate=N/A speed=18.5x    frame=28066 fps=442 q=-0.0 size=N/A time=00:19:30.58 bitrate=N/A speed=18.4x    frame=28312 fps=442 q=-0.0 size=N/A time=00:19:40.84 bitrate=N/A speed=18.4x    frame=28548 fps=442 q=-0.0 size=N/A time=00:19:50.73 bitrate=N/A speed=18.5x    frame=28762 fps=442 q=-0.0 size=N/A time=00:19:59.61 bitrate=N/A speed=18.4x    frame=28989 fps=442 q=-0.0 size=N/A time=00:20:09.08 bitrate=N/A speed=18.4x    frame=29218 fps=442 q=-0.0 size=N/A time=00:20:18.63 bitrate=N/A speed=18.4x    frame=29467 fps=442 q=-0.0 size=N/A time=00:20:29.01 bitrate=N/A speed=18.5x    frame=29687 fps=442 q=-0.0 size=N/A time=00:20:38.19 bitrate=N/A speed=18.4x    frame=29902 fps=442 q=-0.0 size=N/A time=00:20:47.16 bitrate=N/A speed=18.4x    frame=30147 fps=442 q=-0.0 size=N/A time=00:20:57.38 bitrate=N/A speed=18.4x    frame=30376 fps=442 q=-0.0 size=N/A time=00:21:06.93 bitrate=N/A speed=18.5x    frame=30641 fps=443 q=-0.0 size=N/A time=00:21:17.98 bitrate=N/A speed=18.5x    frame=30862 fps=443 q=-0.0 size=N/A time=00:21:27.20 bitrate=N/A speed=18.5x    frame=31072 fps=443 q=-0.0 size=N/A time=00:21:35.96 bitrate=N/A speed=18.5x    frame=31314 fps=443 q=-0.0 size=N/A time=00:21:46.05 bitrate=N/A speed=18.5x    frame=31549 fps=443 q=-0.0 size=N/A time=00:21:55.85 bitrate=N/A speed=18.5x    frame=31794 fps=443 q=-0.0 size=N/A time=00:22:06.07 bitrate=N/A speed=18.5x    frame=32031 fps=443 q=-0.0 size=N/A time=00:22:15.95 bitrate=N/A speed=18.5x    frame=32279 fps=443 q=-0.0 size=N/A time=00:22:26.30 bitrate=N/A speed=18.5x    frame=32540 fps=444 q=-0.0 size=N/A time=00:22:37.18 bitrate=N/A speed=18.5x    frame=32772 fps=444 q=-0.0 size=N/A time=00:22:46.86 bitrate=N/A speed=18.5x    frame=32983 fps=444 q=-0.0 size=N/A time=00:22:55.66 bitrate=N/A speed=18.5x    frame=33148 fps=443 q=-0.0 size=N/A time=00:23:02.54 bitrate=N/A speed=18.5x    frame=33379 fps=443 q=-0.0 size=N/A time=00:23:12.18 bitrate=N/A speed=18.5x    frame=33633 fps=443 q=-0.0 size=N/A time=00:23:22.77 bitrate=N/A speed=18.5x    frame=33817 fps=443 q=-0.0 size=N/A time=00:23:30.45 bitrate=N/A speed=18.5x    frame=34030 fps=442 q=-0.0 size=N/A time=00:23:39.33 bitrate=N/A speed=18.5x    frame=34282 fps=443 q=-0.0 size=N/A time=00:23:49.84 bitrate=N/A speed=18.5x    frame=34520 fps=443 q=-0.0 size=N/A time=00:23:59.77 bitrate=N/A speed=18.5x    [Parsed_ssim_10 @ 000001c6c1da8240] SSIM Y:0.992728 (21.383259) U:0.993552 (21.905918) V:0.993478 (21.856512) All:0.992990 (21.542962)
[out#0/null @ 000001c6bbb97ec0] video:14857KiB audio:270428KiB subtitle:0KiB other streams:0KiB global headers:0KiB muxing overhead: unknown
frame=34577 fps=443 q=-0.0 Lsize=N/A time=00:24:02.14 bitrate=N/A speed=18.5x    
